{"title":"Doctor Thorne S01E01 x264 RB58.mp4","uid":13789420,"size":525605941,"categoryP":"video","categoryS":"tv_shows","magnet":"?xt=urn:btih:f061ecdcf4b815b7f53e41b6d1942c81cbad5c45&amp;dn=Doctor+Thorne+S01E01+x264+RB58.mp4&amp;tr=udp%3A%2F%2Ftracker.leechers-paradise.org%3A6969&amp;tr=udp%3A%2F%2Fzer0day.ch%3A1337&amp;tr=udp%3A%2F%2Fopen.demonii.com%3A1337&amp;tr=udp%3A%2F%2Ftracker.coppersurfer.tk%3A6969&amp;tr=udp%3A%2F%2Fexodus.desync.com%3A6969","seeders":2,"leechers":0,"uploader":"RedBaron58","files":1,"time":1457386464,"description":"Doctor Thorne S01E01 x264 mp4\r\n \nhttp://www.imdb.com/title/tt4938084/\r\n\r\nTrailer:\r\n\r\n\r\nPlease be patient My intial upload speed is limited.\r\nThank you for your kind comments and feedback on my other torrents, your feedback is welcome.\r\n\r\n\r\nAbout the Episode:\r\nJulian Fellowes' three-part adaptation of Anthony Trollope's historical novel, starring \r\nTom Hollander as a doctor who is forced to tell his niece the secrets of her past when she \r\nis barred from attending her best friend's wedding. \r\nThe truth threatens her own plans to marry the heir to a country estate, and the mother \r\nof her intended plots to push her son in the direction of an American heiress. \r\nMeanwhile, the doctor also advises a railway tycoon who is drinking himself into an early grave. \r\nWith Alison Brie, Ian McShane and Rebecca Front.\r\n\r\n\r\nI hope you enjoy.\r\n\r\n\r\nTechnical:\r\n\r\nGeneral\r\nComplete name                            : G:Doctor Thorne S01E01 x264 RB58.mp4\r\nFormat                                   : MPEG-4\r\nFormat profile                           : Base Media\r\nCodec ID                                 : isom\r\nFile size                                : 501 MiB\r\nDuration                                 : 46mn 4s\r\nOverall bit rate                         : 1 521 Kbps\r\nWriting application                      : Lavf54.63.104\r\n\r\nVideo\r\nID                                       : 1\r\nFormat                                   : AVC\r\nFormat/Info                              : Advanced Video Codec\r\nFormat profile                           :   \r\nFormat settings, CABAC                   : Yes\r\nFormat settings, ReFrames                : 4 frames\r\nCodec ID                                 : avc1\r\nCodec ID/Info                            : Advanced Video Coding\r\nDuration                                 : 46mn 4s\r\nBit rate                                 : 1 400 Kbps\r\nWidth                                    : 832 pixels\r\nHeight                                   : 468 pixels\r\nDisplay aspect ratio                     : 16:9\r\nFrame rate mode                          : Constant\r\nFrame rate                               : 25.000 fps\r\nColor space                              : YUV\r\nChroma subsampling                       : 4:2:0\r\nBit depth                                : 8 bits\r\nScan type                                : Progressive\r\nBits/(Pixel*Frame)                       : 0.144\r\nStream size                              : 461 MiB (92%)\r\nWriting library                          : x264 core 123 r2189 35cf912\r\nEncoding settings                        : cabac=1 / ref=3 / deblock=1:0:0\r\n\r\nAudio\r\nID                                       : 2\r\nFormat                                   : AAC\r\nFormat/Info                              : Advanced Audio Codec\r\nFormat profile                           : LC\r\nCodec ID                                 : 40\r\nDuration                                 : 46mn 4s\r\nBit rate mode                            : Constant\r\nBit rate                                 : 112 Kbps\r\nChannel(s)                               : 2 channels\r\nChannel positions                        : Front: L R\r\nSampling rate                            : 48.0 KHz\r\nCompression mode                         : Lossy\r\nStream size                              : 36.9 MiB (7%)","torrent":{"xt":"urn:btih:f061ecdcf4b815b7f53e41b6d1942c81cbad5c45","amp;dn":"Doctor+Thorne+S01E01+x264+RB58.mp4","amp;tr":["udp%3A%2F%2Ftracker.leechers-paradise.org%3A6969","udp%3A%2F%2Fzer0day.ch%3A1337","udp%3A%2F%2Fopen.demonii.com%3A1337","udp%3A%2F%2Ftracker.coppersurfer.tk%3A6969","udp%3A%2F%2Fexodus.desync.com%3A6969"],"infoHash":"f061ecdcf4b815b7f53e41b6d1942c81cbad5c45","infoHashBuffer":{"type":"Buffer","data":[240,97,236,220,244,184,21,183,245,62,65,182,209,148,44,129,203,173,92,69]},"announce":[],"urlList":[]}}